<svg xmlns="http://www.w3.org/2000/svg" width="1280" height="400" viewBox="0 0 1280 400" role="img" aria-labelledby="t d">
<title id="t">TELIOS 2.15.12 — Une ligne, et le poste est prêt.</title>
<desc id="d">Dernière version publiée : TELIOS 2.15.12, publiée le 09/10/2026. Signature TELIOS vérifiée. Compatible Linux Mint 21+ et Ubuntu 22.04+.</desc>
<defs>
  <radialGradient id="halo" cx="0" cy="0" r="1" gradientUnits="userSpaceOnUse" gradientTransform="translate(80 40) scale(760 520)">
    <stop offset="0" stop-color="#C7692F" stop-opacity=".55"/><stop offset="1" stop-color="#C7692F" stop-opacity="0"/></radialGradient>
  <radialGradient id="halo2" cx="0" cy="0" r="1" gradientUnits="userSpaceOnUse" gradientTransform="translate(1240 400) scale(620 420)">
    <stop offset="0" stop-color="#4F8CFF" stop-opacity=".22"/><stop offset="1" stop-color="#4F8CFF" stop-opacity="0"/></radialGradient>
  <pattern id="grille" width="28" height="28" patternUnits="userSpaceOnUse"><path d="M28 0H0V28" fill="none" stroke="#E8EEF9" stroke-opacity=".05"/></pattern>
  <linearGradient id="carte" x1="0" y1="0" x2="0" y2="1"><stop offset="0" stop-color="#16233D"/><stop offset="1" stop-color="#0F1A2E"/></linearGradient>
</defs>
<rect width="1280" height="400" rx="16" fill="#0B1220"/>
<rect width="1280" height="400" rx="16" fill="url(#halo)"/>
<rect width="1280" height="400" rx="16" fill="url(#halo2)"/>
<rect width="1280" height="400" rx="16" fill="url(#grille)"/>
<g font-family="'Segoe UI', Ubuntu, 'Noto Sans', 'Helvetica Neue', Arial, sans-serif">
  <path transform="translate(64.0 58.0) scale(0.667)" d="M4 17v2a2 2 0 0 0 2 2h12a2 2 0 0 0 2-2v-2M7 11l5 5 5-5M12 4v12" fill="none" stroke="#E08A4F" stroke-width="3.00" stroke-linecap="round" stroke-linejoin="round"/>
  <text x="90" y="72" font-size="14" font-weight="700" letter-spacing="2.4" fill="#E08A4F">DISTRIBUTION PUBLIQUE · SANS CLÉ GITHUB</text>
  <text x="62" y="140" font-size="46" font-weight="800" fill="#FFFFFF">Une ligne, et le poste est prêt.</text>
  <text x="64" y="192" font-size="18" fill="#B9C4DA">L'installateur pose le socle, télécharge la dernière version et vérifie la signature TELIOS.</text>
  <text x="64" y="220" font-size="18" fill="#B9C4DA">La clé de licence s'ajoute ensuite, dans TELIOS.</text>
  <g transform="translate(64 268)"><rect width="170" height="36" rx="18" fill="#C7692F" fill-opacity=".16" stroke="#E08A4F"/><path transform="translate(14.0 9.0) scale(0.750)" d="M4 5h16v11H4zM9 20h6M12 16v4" fill="none" stroke="#E08A4F" stroke-width="2.67" stroke-linecap="round" stroke-linejoin="round"/><text x="40" y="24" font-size="15" font-weight="700" fill="#F2F5FB">Linux Mint 21+</text></g><g transform="translate(246 268)"><rect width="161" height="36" rx="18" fill="#C7692F" fill-opacity=".16" stroke="#E08A4F"/><path transform="translate(14.0 9.0) scale(0.750)" d="M4 5h16v11H4zM9 20h6M12 16v4" fill="none" stroke="#E08A4F" stroke-width="2.67" stroke-linecap="round" stroke-linejoin="round"/><text x="40" y="24" font-size="15" font-weight="700" fill="#F2F5FB">Ubuntu 22.04+</text></g>
  <path transform="translate(64.0 328.0) scale(0.833)" d="M5 12l5 5L20 7" fill="none" stroke="#3FB97F" stroke-width="2.88" stroke-linecap="round" stroke-linejoin="round"/>
  <text x="94" y="344" font-size="18" font-weight="700" fill="#FFFFFF">TELIOS est compatible Linux Mint et Ubuntu.</text>
  <g transform="translate(872 82)">
    <rect x="-6" y="-6" width="358" height="248" rx="14" fill="#C7692F" fill-opacity=".14"/>
    <rect width="346" height="236" rx="10" fill="url(#carte)" stroke="#C7692F" stroke-opacity=".75"/>
    <text x="28" y="46" font-size="13" font-weight="700" letter-spacing="2" fill="#9AAAC6">DERNIÈRE VERSION PUBLIÉE</text>
    <text x="26" y="104" font-size="44" font-weight="800" fill="#FFFFFF">TELIOS <tspan fill="#E08A4F">2.15.12</tspan></text>
    <text x="28" y="138" font-size="16" fill="#B9C4DA">publiée le 09/10/2026</text>
    <circle cx="38" cy="182" r="10" fill="#3FB97F"/><path transform="translate(31.0 175.0) scale(0.583)" d="M5 12l5 5L20 7" fill="none" stroke="#0B1220" stroke-width="5.14" stroke-linecap="round" stroke-linejoin="round"/>
    <text x="58" y="188" font-size="16" font-weight="700" fill="#3FB97F">Signature TELIOS vérifiée</text>
  </g>
</g>
</svg>
